<svg width="189" height="127" viewBox="0 0 189 127" fill="none" xmlns="http://www.w3.org/2000/svg">
<path d="M106.013 38.9292H113.743V54.3615C114.285 53.799 114.964 53.2787 115.778 52.7993C117.134 51.9874 118.626 51.5809 120.253 51.5809C121.61 51.5809 123.049 51.8621 124.572 52.4247C127.243 53.4449 129.408 55.1376 131.067 57.5014C132.725 59.8653 133.555 62.5054 133.555 65.4202C133.555 68.3351 132.731 70.9445 131.083 73.3084C129.435 75.6722 127.285 77.3649 124.635 78.3852C123.09 78.9681 121.547 79.2698 120.003 79.2916C118.521 79.2916 117.176 79.0103 115.966 78.4478C114.859 77.9275 114.119 77.3547 113.743 76.7295V79.041H106.013V38.9292ZM114.949 60.9993C113.665 62.2803 113.024 63.826 113.024 65.6389C113.024 67.4517 113.665 68.9974 114.949 70.2784C116.232 71.5594 117.781 72.1999 119.597 72.1999C121.414 72.1999 122.962 71.5594 124.246 70.2784C125.529 68.9974 126.171 67.4517 126.171 65.6389C126.171 63.826 125.529 62.2803 124.246 60.9993C122.962 59.7183 121.414 59.0778 119.597 59.0778C117.781 59.0778 116.232 59.7183 114.949 60.9993Z" fill="white"/>
<path d="M162.163 66.7946C162.163 67.2114 162.158 67.7944 162.148 68.5435C162.138 69.2927 162.133 69.9294 162.133 70.4497C162.133 75.0317 162.455 77.916 163.102 79.1024C159.075 79.1446 156.822 79.165 156.342 79.165C156.299 79.1446 156.248 79.0193 156.185 78.7904C156.123 78.5616 156.06 78.4261 155.997 78.3839C155.559 78.3634 155.277 78.3736 155.152 78.4146C154.943 78.6229 154.839 78.8735 154.839 79.1637C154.318 79.2046 153.16 79.3772 151.365 79.679C149.571 79.9807 148.173 80.1315 147.172 80.1315C145.752 80.1315 144.406 79.996 143.134 79.725C141.861 79.4539 140.677 79.0423 139.582 78.4913C138.487 77.9402 137.611 77.1591 136.954 76.1478C136.297 75.1379 135.967 73.9566 135.967 72.6027C135.967 71.2488 136.275 70.0253 136.891 68.7443C137.506 67.4632 138.273 66.4277 139.191 65.6363C140.881 64.1789 142.791 63.1267 144.92 62.4811C147.049 61.8354 149.594 61.5133 152.557 61.5133L154.466 61.8252C153.528 59.9932 151.587 59.0765 148.645 59.0765C146.244 59.0765 144.575 59.8052 143.636 61.2627L137.283 60.2322C137.784 57.7955 139.067 55.952 141.132 54.7029C143.198 53.4538 145.733 52.8287 148.738 52.8287C150.971 52.8287 153.027 53.1406 154.904 53.7658C156.782 54.3909 158.275 55.3076 159.38 56.5145C161.237 58.6188 162.166 62.0438 162.166 66.792L162.163 66.7946ZM147.202 74.6035C149.08 74.6035 150.759 74.505 152.241 74.3068C153.722 74.1087 154.464 73.8747 154.464 73.6037V67.0119C151.146 67.2612 148.798 67.6269 147.421 68.105C145.146 68.9168 144.01 70.1979 144.01 71.9468C144.01 72.843 144.318 73.5091 144.934 73.9463C145.549 74.3836 146.306 74.6022 147.204 74.6022L147.202 74.6035Z" fill="white"/>
<path d="M167.469 42.9423C168.314 42.0985 169.342 41.6766 170.552 41.6766C171.763 41.6766 172.785 42.0985 173.62 42.9423C174.454 43.7861 174.871 44.8114 174.871 46.0196C174.871 47.2277 174.454 48.2479 173.62 49.0815C172.785 49.915 171.763 50.3305 170.552 50.3305C169.342 50.3305 168.314 49.9138 167.469 49.0815C166.624 48.2492 166.201 47.2277 166.201 46.0196C166.201 44.8114 166.624 43.7861 167.469 42.9423ZM166.645 52.8299H174.426L173.247 79.0397H167.824L166.645 52.8299Z" fill="white"/>
<path d="M105.159 84.1829H114.547L113.416 110.644C113.339 113.198 112.291 115.4 110.271 117.253C108.251 119.105 105.876 120.031 103.145 120.031C101.741 120.031 100.366 119.752 99.0194 119.196L101.731 112.631C102.154 112.804 102.606 112.891 103.088 112.891C103.934 112.891 104.679 112.67 105.324 112.229C105.968 111.786 106.29 111.23 106.29 110.559L105.159 84.1841V84.1829Z" fill="white"/>
<path d="M132.196 101.316C133.792 101.316 134.976 100.951 135.745 100.221C136.513 99.4925 136.899 98.3597 136.899 96.823V84.1829H144.024V107.535H136.899V105.866C136.34 106.498 135.552 107.023 134.533 107.434C133.513 107.847 132.465 108.053 131.388 108.053C129.426 108.053 127.734 107.621 126.311 106.757C124.58 105.72 123.142 104.343 121.998 102.625C120.853 100.906 120.281 99.1652 120.281 97.3983V84.2685H127.407V96.304C127.407 96.8038 127.512 97.3357 127.725 97.902C127.936 98.4684 128.229 99.0105 128.605 99.5283C128.98 100.046 129.485 100.474 130.119 100.809C130.753 101.146 131.446 101.313 132.196 101.313V101.316Z" fill="white"/>
<path d="M159.552 84.1829H150.164L151.267 109.885V110.558C151.267 111.229 150.944 111.786 150.301 112.227C149.657 112.668 148.911 112.889 148.064 112.889C147.584 112.889 147.132 112.803 146.708 112.63L143.996 119.195C145.343 119.751 146.718 120.03 148.122 120.03C150.853 120.03 153.228 119.103 155.248 117.252C157.268 115.399 158.316 113.196 158.392 110.643H158.422L159.553 84.1816L159.552 84.1829Z" fill="white"/>
<path d="M177.172 101.316C178.768 101.316 179.952 100.951 180.72 100.221C181.489 99.4925 181.874 98.3597 181.874 96.823V84.1829H189V107.535H181.874V105.866C181.316 106.498 180.528 107.023 179.508 107.434C178.489 107.847 177.441 108.053 176.364 108.053C174.401 108.053 172.709 107.621 171.286 106.757C169.556 105.72 168.117 104.343 166.973 102.625C165.828 100.906 165.257 99.1652 165.257 97.3983V84.2685H172.383V96.304C172.383 96.8038 172.488 97.3357 172.7 97.902C172.912 98.4684 173.205 99.0105 173.58 99.5283C173.956 100.046 174.46 100.474 175.094 100.809C175.728 101.146 176.421 101.313 177.172 101.313V101.316Z" fill="white"/>
<path d="M107.244 34.939L109.135 30.7746L106.228 24.3641H107.869L109.963 28.9653L112.057 24.3641H113.698L108.885 34.939H107.244Z" fill="white"/>
<path d="M116.74 32.1939C115.844 32.1939 115.146 31.9652 114.646 31.5077C114.146 31.0501 113.896 30.4106 113.896 29.5892C113.896 29.0901 114.011 28.6482 114.24 28.2634C114.469 27.8683 114.797 27.5563 115.225 27.3276C115.652 27.0988 116.157 26.9844 116.74 26.9844C117.48 26.9844 118.084 27.1612 118.553 27.5148V26.8753C118.553 26.5529 118.444 26.2566 118.225 25.9862C118.006 25.7159 117.621 25.5807 117.069 25.5807C116.777 25.5807 116.454 25.6171 116.1 25.6899C115.756 25.7523 115.396 25.8666 115.021 26.033L114.553 24.832C115.438 24.4161 116.329 24.2081 117.225 24.2081C117.881 24.2081 118.423 24.3277 118.85 24.5669C119.277 24.806 119.595 25.1284 119.803 25.5339C120.012 25.929 120.116 26.3762 120.116 26.8753V31.9756H118.991L118.834 31.3985C118.574 31.6688 118.267 31.8664 117.912 31.9912C117.558 32.1263 117.168 32.1939 116.74 32.1939ZM117.022 30.8058C117.48 30.8058 117.85 30.7018 118.131 30.4938C118.413 30.2755 118.553 29.9739 118.553 29.5892C118.553 29.1941 118.413 28.8925 118.131 28.6845C117.85 28.4766 117.48 28.3726 117.022 28.3726C116.563 28.3726 116.193 28.4766 115.912 28.6845C115.631 28.8925 115.49 29.1941 115.49 29.5892C115.49 29.9739 115.631 30.2755 115.912 30.4938C116.193 30.7018 116.563 30.8058 117.022 30.8058Z" fill="white"/>
<path d="M122.057 21.3538H123.588V27.5148L126.526 24.3641H128.37L125.026 28.0139L128.401 31.9756H126.526L123.588 28.5754V31.9756H122.057V21.3538Z" fill="white"/>
<path d="M130.838 31.9756H129.276V24.3641H130.838V31.9756ZM129.041 22.0245C129.041 21.723 129.13 21.4786 129.307 21.2914C129.495 21.0939 129.745 20.9951 130.057 20.9951C130.359 20.9951 130.604 21.0939 130.792 21.2914C130.979 21.4786 131.073 21.723 131.073 22.0245C131.073 22.3157 130.979 22.56 130.792 22.7576C130.604 22.9448 130.359 23.0383 130.057 23.0383C129.745 23.0383 129.495 22.9448 129.307 22.7576C129.13 22.56 129.041 22.3157 129.041 22.0245Z" fill="white"/>
<path d="M135.314 32.1315C134.783 32.1315 134.257 32.0068 133.736 31.7572C133.226 31.5077 132.804 31.0813 132.47 30.4782L133.658 29.6984C133.95 30.0831 134.226 30.3639 134.486 30.5406C134.747 30.707 135.085 30.7902 135.502 30.7902C135.835 30.7902 136.091 30.707 136.268 30.5406C136.455 30.3639 136.549 30.1507 136.549 29.9011C136.549 29.662 136.445 29.4592 136.236 29.2928C136.028 29.1161 135.622 28.9497 135.017 28.7937C134.267 28.5962 133.689 28.3362 133.283 28.0139C132.877 27.6915 132.673 27.182 132.673 26.4853C132.673 26.0694 132.778 25.6899 132.986 25.3467C133.194 25.0036 133.496 24.728 133.892 24.5201C134.288 24.3121 134.757 24.2081 135.299 24.2081C135.945 24.2081 136.497 24.3433 136.955 24.6137C137.414 24.8736 137.773 25.1856 138.034 25.5495L136.83 26.4385C136.684 26.2514 136.471 26.0694 136.19 25.8926C135.908 25.7055 135.554 25.6119 135.127 25.6119C134.866 25.6119 134.627 25.6847 134.408 25.8303C134.189 25.9758 134.08 26.1786 134.08 26.4385C134.08 26.6985 134.179 26.9117 134.377 27.078C134.585 27.234 134.96 27.3744 135.502 27.4992C136.419 27.7175 137.07 28.0035 137.455 28.357C137.841 28.7001 138.034 29.1577 138.034 29.7296C138.034 30.2287 137.903 30.6602 137.643 31.0241C137.393 31.3777 137.059 31.6532 136.643 31.8508C136.236 32.038 135.794 32.1315 135.314 32.1315Z" fill="white"/>
<path d="M142.984 32.1315C142.213 32.1315 141.53 31.9704 140.936 31.648C140.353 31.3153 139.9 30.8526 139.577 30.2599C139.254 29.6672 139.092 28.9757 139.092 28.1854C139.092 27.3848 139.254 26.6881 139.577 26.0954C139.9 25.5027 140.353 25.04 140.936 24.7072C141.53 24.3745 142.213 24.2081 142.984 24.2081C143.765 24.2081 144.447 24.3745 145.031 24.7072C145.614 25.04 146.067 25.5027 146.39 26.0954C146.724 26.6881 146.89 27.3848 146.89 28.1854C146.89 28.9757 146.724 29.6672 146.39 30.2599C146.067 30.8526 145.614 31.3153 145.031 31.648C144.447 31.9704 143.765 32.1315 142.984 32.1315ZM142.984 30.6342C143.682 30.6342 144.239 30.4106 144.656 29.9635C145.083 29.506 145.296 28.9133 145.296 28.1854C145.296 27.4472 145.083 26.8493 144.656 26.3918C144.239 25.9342 143.682 25.7055 142.984 25.7055C142.296 25.7055 141.739 25.9342 141.311 26.3918C140.895 26.8389 140.686 27.4316 140.686 28.1698C140.686 28.9081 140.895 29.506 141.311 29.9635C141.739 30.4106 142.296 30.6342 142.984 30.6342Z" fill="white"/>
<path d="M148.366 31.9756V21.3538H149.929V25.0972C150.221 24.8164 150.559 24.5981 150.945 24.4421C151.341 24.2861 151.768 24.2081 152.226 24.2081C152.935 24.2081 153.549 24.3745 154.07 24.7072C154.602 25.0296 155.013 25.4871 155.305 26.0798C155.597 26.6725 155.742 27.364 155.742 28.1542C155.742 28.9445 155.597 29.6412 155.305 30.2443C155.013 30.837 154.602 31.2997 154.07 31.6324C153.549 31.9652 152.935 32.1315 152.226 32.1315C151.726 32.1315 151.268 32.038 150.851 31.8508C150.434 31.6636 150.075 31.4037 149.773 31.0709L149.554 31.9756H148.366ZM151.992 30.7902C152.638 30.7902 153.159 30.551 153.555 30.0727C153.951 29.584 154.148 28.9445 154.148 28.1542C154.148 27.3744 153.951 26.7453 153.555 26.267C153.159 25.7887 152.638 25.5495 151.992 25.5495C151.356 25.5495 150.841 25.7887 150.445 26.267C150.049 26.7453 149.851 27.3796 149.851 28.1698C149.851 28.9601 150.049 29.5944 150.445 30.0727C150.841 30.551 151.356 30.7902 151.992 30.7902Z" fill="white"/>
<path d="M159.425 32.1939C158.529 32.1939 157.831 31.9652 157.331 31.5077C156.831 31.0501 156.581 30.4106 156.581 29.5892C156.581 29.0901 156.696 28.6482 156.925 28.2634C157.154 27.8683 157.482 27.5563 157.909 27.3276C158.337 27.0988 158.842 26.9844 159.425 26.9844C160.165 26.9844 160.769 27.1612 161.238 27.5148V26.8753C161.238 26.5529 161.129 26.2566 160.91 25.9862C160.691 25.7159 160.306 25.5807 159.753 25.5807C159.462 25.5807 159.139 25.6171 158.784 25.6899C158.441 25.7523 158.081 25.8666 157.706 26.033L157.237 24.832C158.123 24.4161 159.014 24.2081 159.91 24.2081C160.566 24.2081 161.108 24.3277 161.535 24.5669C161.962 24.806 162.28 25.1284 162.488 25.5339C162.697 25.929 162.801 26.3762 162.801 26.8753V31.9756H161.676L161.519 31.3985C161.259 31.6688 160.951 31.8664 160.597 31.9912C160.243 32.1263 159.852 32.1939 159.425 32.1939ZM159.707 30.8058C160.165 30.8058 160.535 30.7018 160.816 30.4938C161.097 30.2755 161.238 29.9739 161.238 29.5892C161.238 29.1941 161.097 28.8925 160.816 28.6845C160.535 28.4766 160.165 28.3726 159.707 28.3726C159.248 28.3726 158.878 28.4766 158.597 28.6845C158.316 28.8925 158.175 29.1941 158.175 29.5892C158.175 29.9739 158.316 30.2755 158.597 30.4938C158.878 30.7018 159.248 30.8058 159.707 30.8058Z" fill="white"/>
<path d="M51.9943 85.7427C52.7295 84.0078 52.4772 82.3126 51.6087 80.7145C49.9013 77.5746 45.9893 76.4534 42.7435 77.4084C42.8947 77.5209 43.0727 77.5976 43.1739 77.7344C43.4262 78.063 43.7196 78.1077 44.1282 78.0719C45.6435 77.939 47.1114 78.1192 48.4782 78.8735C50.5712 80.0216 51.7906 82.7243 51.1707 84.9961C50.8825 86.0559 50.2958 86.9521 49.4837 87.7154C50.6609 87.4763 51.5332 86.8422 51.9956 85.7414L51.9943 85.7427Z" fill="#A6A6A6"/>
<path d="M46.553 56.5221C46.2596 56.1782 46.088 56.2358 45.933 56.664C45.8356 56.9274 45.7613 57.1997 45.6601 57.4631C44.7763 59.7656 43.9079 62.0732 42.9946 64.3642C42.8729 64.6685 42.8613 64.8526 43.0484 65.1185C44.1986 66.746 44.9941 68.5333 45.4142 70.4868C45.7844 72.1884 45.9509 73.8926 45.696 75.515C47.0487 75.9446 48.3501 76.3524 49.6963 76.7794C50.9888 75.1903 52.7654 74.4181 54.8584 74.3439C54.8853 74.1547 54.9058 74.009 54.9301 73.867C55.1223 72.5438 55.2734 71.2296 54.8853 69.9128C54.6509 69.1201 54.4114 68.3262 54.2128 67.5246C53.9515 66.4417 53.7299 65.3525 53.4917 64.2658C53.5327 64.2543 53.5775 64.2389 53.6223 64.2274C55.3426 66.0863 56.2943 68.3288 56.9015 70.7796C57.3498 68.945 57.9775 67.1986 59.211 65.6657C58.5411 65.0648 57.9006 64.5113 57.2806 63.9308C55.7205 62.4772 54.1731 61.0096 52.6104 59.5534C51.6741 58.684 50.5609 58.1304 49.2595 57.7341C50.365 59.6991 50.739 61.7523 50.8312 63.9781C50.552 63.8452 50.3624 63.7531 50.1703 63.6649C49.5272 63.3632 48.8919 63.0321 48.231 62.7713C47.0781 62.3213 47.0781 62.3455 46.339 63.3543C45.8702 63.9935 45.3105 64.5381 44.5573 64.9638C44.5752 64.8398 44.5727 64.7887 44.5893 64.7478C45.0492 63.4719 45.5052 62.1934 45.9714 60.9213C46.2033 60.2885 46.2199 60.2706 46.8488 60.5391C47.5636 60.8433 48.2579 61.1898 48.9957 61.5337C48.9841 61.3918 48.9982 61.2729 48.9662 61.1668C48.6165 59.951 48.1477 58.785 47.4393 57.7252C47.1601 57.311 46.8757 56.8993 46.553 56.5209V56.5221Z" fill="#A6A6A6"/>
<path d="M50.6391 33.1812C49.3876 33.1966 47.9709 33.6197 47.2113 34.539C46.6631 35.2076 46.5683 36.0245 46.927 36.9604C47.7775 38.9011 49.6669 39.3191 51.0541 38.8806C51.8611 38.6262 52.6847 38.0164 53.1113 37.0192C52.8538 35.9836 52.5297 34.7052 52.198 33.4114C52.0058 33.3436 51.7893 33.2873 51.5575 33.249C51.2731 33.1991 50.9619 33.1748 50.6378 33.1812H50.6391ZM51.7663 35.797C51.5946 35.9721 51.3128 35.976 51.1374 35.8046C50.8543 35.5298 50.5853 35.3124 50.3278 35.1462C50.3598 35.2549 50.3778 35.3712 50.3778 35.4927C50.3893 36.2291 49.7937 36.8364 49.0559 36.8453C48.4654 36.8543 47.9594 36.4758 47.7724 35.9491C47.6673 36.1601 47.6123 36.3173 47.611 36.3211C47.5508 36.5078 47.3791 36.6267 47.1934 36.6292C47.146 36.6292 47.0986 36.6229 47.0512 36.6075C46.8168 36.5321 46.6887 36.2828 46.7643 36.0488C46.7874 35.9772 47.3497 34.2794 48.7459 33.9343C49.6681 33.7041 50.6813 34.1209 51.7573 35.1692C51.9328 35.3406 51.9366 35.6218 51.765 35.797H51.7663Z" fill="#A6A6A6"/>
<path d="M69.0023 78.3302C67.0066 76.9418 64.765 76.7053 62.3838 76.8203C62.7514 77.7344 62.8104 77.7408 63.6058 77.7766C64.3142 77.8086 65.0379 77.8597 65.7257 78.0221C68.6962 78.7265 70.4011 80.7772 71.3951 83.5143C71.5641 83.9784 71.7473 84.1651 72.22 84.0769C72.3327 84.0564 72.448 84.0526 72.6145 84.0411C72.0842 81.6619 70.9928 79.7148 69.0036 78.3289L69.0023 78.3302Z" fill="#A6A6A6"/>
<path d="M69.5275 70.3628C69.4775 70.3296 69.4301 70.2976 69.3827 70.2682C67.9622 70.9662 66.5455 70.7924 65.116 70.2234C64.327 71.9583 63.5558 73.6536 62.836 75.2337C64.1848 75.4293 65.5259 75.6364 66.8683 75.8078C66.9964 75.8257 67.2065 75.6838 67.2769 75.5597C67.7662 74.6571 68.276 73.7635 68.6885 72.8251C69.033 72.0325 69.2521 71.1861 69.5275 70.3628Z" fill="#A6A6A6"/>
<path d="M57.8596 74.0895C57.8186 74.4858 57.9249 74.7108 58.3579 74.7671C58.6602 74.808 58.9484 74.9422 59.1674 75.01C59.9475 72.0708 60.7212 69.1687 61.4884 66.2768C60.8839 65.8894 60.5098 66.2091 60.2255 66.7026C59.8309 67.3916 59.4185 68.0756 59.0893 68.7916C58.3207 70.4689 58.0338 72.269 57.8583 74.0895H57.8596Z" fill="#A6A6A6"/>
<path d="M21.8991 22.1545C19.7049 21.7019 18.848 21.2928 18.3446 20.4286C22.6651 21.358 26.5463 20.7418 29.7281 17.4331C29.3579 17.1787 28.9813 16.9601 28.6547 16.684C28.3281 16.4091 28.0552 16.0716 27.7593 15.7635C27.7888 15.7302 27.8183 15.6983 27.8477 15.6663C33.0162 17.9982 37.47 16.8386 41.4895 12.9764C41.1398 13.7985 40.7901 14.6243 40.4007 15.5397C44.5701 16.5165 48.5281 16.629 51.5203 12.6069C51.4576 14.3469 50.4854 15.4362 49.2403 16.3592C49.599 17.359 49.9461 18.3357 50.3547 19.4812C51.049 18.81 51.7458 18.2769 52.2646 17.6083C53.5301 15.9718 53.8811 14.0746 53.6044 12.0508C53.2368 9.36602 51.8816 7.32815 49.4798 6.05864C47.52 5.01925 45.4296 4.83387 43.2943 5.48716C42.846 5.62268 42.431 5.66487 41.9929 5.45776C41.5753 5.25321 41.1424 5.08189 40.7056 4.92464C38.3717 4.07191 35.9675 3.81749 33.5414 4.36851C31.4189 4.85433 29.5206 5.84514 28.0001 7.44961C27.6953 7.77306 27.3571 7.92392 26.8973 7.91753C26.3337 7.90858 25.7585 7.92903 25.2103 8.04537C21.2318 8.86742 18.5034 11.1175 17.3199 15.0705C17.1918 15.4937 17.0381 15.8197 16.6384 16.0358C14.4263 17.2311 13.2312 19.1015 13.0365 21.5843C12.8469 23.984 13.5885 26.0321 15.6098 27.4499C16.9791 28.4151 18.5098 28.5685 20.1609 28.0239C19.9381 27.3783 19.7126 26.7774 19.5294 26.1625C19.4321 25.8365 19.2861 25.6984 18.9159 25.6894C18.3497 25.6741 17.8105 25.5002 17.252 25.0771C19.3834 24.8763 20.6976 23.6362 21.8979 22.1558L21.8991 22.1545Z" fill="#A6A6A6"/>
<path d="M33.2814 25.94C36.3645 24.5133 39.6001 23.6196 42.992 23.3179C45.3194 23.1108 47.6417 23.0098 49.9269 23.8357C49.9154 23.7321 49.9295 23.6286 49.8974 23.5429C49.1827 21.4449 48.459 19.3495 47.7391 17.2516C47.6558 17.0036 47.5226 16.9678 47.2523 17.0215C44.5842 17.5686 41.9365 17.5367 39.3414 16.5868C39.1966 16.5305 38.9674 16.5305 38.8406 16.6072C36.5426 18.034 34.064 18.5454 31.3869 18.1695C31.2037 18.1452 30.9309 18.2462 30.8054 18.3856C28.843 20.504 26.4374 21.7684 23.5771 22.1711C23.4708 22.1865 23.3338 22.2836 23.2838 22.3782C22.7266 23.4048 21.9619 24.2422 21.0243 24.9415C20.9141 25.0272 20.8321 25.297 20.8795 25.4299C21.7185 27.836 22.578 30.2357 23.4503 32.6801C26.3298 29.7856 29.6474 27.6225 33.2826 25.9413L33.2814 25.94Z" fill="#A6A6A6"/>
<path d="M40.1343 33.8972C39.6539 33.8179 39.2005 33.7847 38.7739 33.7872C37.3419 33.8051 36.2416 34.2347 35.6395 34.5364C35.3219 34.6988 35.1182 35.0248 35.1118 35.3891L35.0913 36.1971C35.0708 36.9808 35.2924 37.739 35.7382 38.3897L35.9072 38.6416C36.4171 39.3959 37.1472 39.929 37.9593 40.145C40.2636 40.7459 41.8738 38.7004 41.8904 38.6799C42.1722 38.3219 42.3733 37.9282 42.4924 37.5076C42.7499 36.5896 42.4988 35.563 41.8315 34.8228C41.3921 34.337 40.7875 34.0058 40.1356 33.8959L40.1343 33.8972ZM41.4242 36.7098C41.2282 36.8568 40.9489 36.8172 40.8016 36.6216C40.7875 36.6024 40.2367 35.8929 39.44 35.5336C39.5758 35.7343 39.6526 35.9798 39.6565 36.2406C39.6655 36.977 39.0724 37.5817 38.3346 37.5907C37.5968 37.5996 36.9858 37.0102 36.9768 36.2738C36.9768 36.1907 36.9858 36.114 36.9947 36.0386C36.6976 36.3135 36.4068 36.6689 36.1237 37.1036C36.0392 37.2327 35.8996 37.303 35.7561 37.3056C35.6716 37.3056 35.5845 37.2838 35.5089 37.234C35.3027 37.0997 35.245 36.8249 35.3795 36.6203C36.2954 35.2166 37.3355 34.4853 38.4704 34.4469C40.2098 34.3855 41.4626 36.022 41.5151 36.091C41.6624 36.2866 41.6227 36.5653 41.4267 36.7124L41.4242 36.7098Z" fill="#A6A6A6"/>
<path d="M69.1202 84.3019C69.4199 84.3492 69.7363 84.3083 70.0693 84.3044C69.2098 81.2054 66.826 79.1842 63.6737 79.197C63.78 79.5102 63.8902 79.8183 64.0054 80.1443C64.9725 80.2658 65.8641 80.6033 66.6557 81.1773C67.6407 81.8907 68.2837 82.8636 68.7871 83.9503C68.855 84.0922 68.9921 84.2814 69.1189 84.3032L69.1202 84.3019Z" fill="#A6A6A6"/>
<path d="M75.1789 83.9056C74.9778 81.6363 73.5483 79.2532 71.3336 78.4184C72.8041 80.0075 73.6905 81.8511 74.0645 83.9196L75.1789 83.9043V83.9056Z" fill="#A6A6A6"/>
<path d="M64.213 81.6261C64.1656 81.9278 64.1323 82.209 64.0797 82.4813C64.0298 82.7332 64.1156 82.8432 64.3526 82.9697C64.783 83.1947 65.3248 83.4223 65.5413 83.8071C65.9332 84.509 66.4251 84.6177 67.104 84.4438C67.1693 84.4284 67.2346 84.4259 67.3499 84.4105C66.6646 83.04 65.7103 82.0339 64.213 81.6261Z" fill="#A6A6A6"/>
<path d="M42.0198 80.446C42.0877 80.5381 42.2247 80.6212 42.331 80.6263C42.7102 80.6467 43.0906 80.6263 43.5197 80.6199C41.9096 77.3317 37.3726 75.8321 34.3727 77.4416C34.9248 77.7792 35.4103 78.0604 36.1545 77.939C38.61 77.5273 40.5659 78.4363 42.0198 80.446Z" fill="#A6A6A6"/>
<path d="M61.9035 78.9477C59.7477 76.4176 56.9783 75.4818 53.7197 76.112C52.6757 76.3128 51.7419 76.8254 50.9708 77.6206C51.1758 77.8341 51.3474 78.008 51.5101 78.1806C55.4771 75.5176 60.6904 77.4404 62.7028 82.2078C63.1152 80.8909 62.6554 79.8349 61.9022 78.9464L61.9035 78.9477Z" fill="#A6A6A6"/>
<path d="M60.9517 84.7723L61.874 84.7608C61.8804 84.6688 61.9009 84.6036 61.8919 84.5422C61.3309 81.3576 58.7934 78.6587 55.4579 78.5322C54.4344 78.4938 53.4507 78.7163 52.6053 79.3696C52.7833 79.6866 52.946 79.9704 53.1061 80.2568C54.396 79.7275 55.2235 79.5818 56.0061 79.7301C57.9185 80.0855 59.2238 81.2476 60.1243 82.8994C60.4535 83.5054 60.6815 84.16 60.9517 84.7723Z" fill="#A6A6A6"/>
<path d="M34.5866 85.3374C34.6315 85.4563 34.7967 85.5944 34.9158 85.6072C35.2591 85.6392 35.6037 85.6136 35.9303 85.6072C35.9508 85.5036 35.9623 85.4717 35.9598 85.441C35.9572 85.3911 35.9418 85.34 35.9277 85.2927C35.3052 83.141 33.8872 81.6823 31.8839 80.7618C29.5206 79.679 27.0356 79.3977 24.4802 79.7736C23.7206 79.8886 22.9802 80.1315 22.2002 80.3207C22.4102 80.7465 22.5703 81.0699 22.7574 81.4547C24.9695 80.5816 27.1868 80.4895 29.4143 81.0993C31.7507 81.7411 33.6989 82.902 34.5879 85.3374H34.5866Z" fill="#A6A6A6"/>
<path d="M23.3812 82.7332C23.5349 83.003 23.677 83.2101 23.7731 83.4312C23.8884 83.7189 24.0344 83.7355 24.3457 83.6972C25.1668 83.5911 26.0058 83.4696 26.8243 83.5489C28.2807 83.6844 29.609 84.174 30.4749 85.487C30.5338 85.5791 30.6824 85.6622 30.7925 85.6673C31.2191 85.6826 31.6495 85.6647 32.1362 85.6583C31.6713 84.3147 30.8579 83.4006 29.5923 82.8879C27.5672 82.0735 25.5216 82.1119 23.3837 82.7306L23.3812 82.7332Z" fill="#A6A6A6"/>
<path d="M53.9182 85.1866L56.3827 85.1533C56.0945 84.5384 55.7269 84.2571 55.1607 84.1855C54.4793 84.0999 53.8977 84.564 53.9182 85.1853V85.1866Z" fill="#A6A6A6"/>
<path d="M58.3195 85.0242C58.6627 84.991 59.0188 84.9616 59.4018 84.9232C59.079 84.0091 58.6397 83.2037 57.9903 82.521C57.036 81.5084 55.2747 81.1006 53.9938 81.603C53.8606 81.6567 53.671 81.8306 53.6761 81.9431C53.6877 82.2448 53.7914 82.5491 53.8606 82.8547C56.0702 82.1617 57.1487 82.6885 58.3195 85.0242Z" fill="#A6A6A6"/>
<path d="M40.1458 83.0298C42.5065 82.5913 44.6764 82.9557 46.5568 84.5512C46.6849 84.6573 46.895 84.6662 47.064 84.7225C47.0999 84.5154 47.2126 84.2789 47.1524 84.0973C46.9513 83.4581 46.4402 83.0771 45.86 82.7984C44.1487 81.9815 42.3375 81.9137 40.4968 82.1119C40.0728 82.1541 39.6578 82.2563 39.1954 82.3433C39.4503 83.1576 39.4567 83.1577 40.1471 83.0298H40.1458Z" fill="#A6A6A6"/>
<path d="M38.7163 85.4768C38.3128 83.6217 37.5481 81.9725 36.2019 80.6647C34.3125 78.8365 32.0235 77.7971 29.4143 77.356C26.5501 76.8676 23.7949 77.1808 21.0678 78.155C21.201 78.4363 21.3253 78.7048 21.4534 78.9745C21.4713 79.0154 21.5072 79.0512 21.5507 79.11C21.8172 79.0218 22.0849 78.9349 22.3487 78.8467C25.5011 77.7996 28.6342 77.8929 31.7212 79.0806C34.3458 80.0868 36.3235 81.7769 37.2035 84.5461C37.5263 85.5701 37.5353 85.5676 38.7163 85.4755V85.4768Z" fill="#A6A6A6"/>
<path d="M49.2006 85.7376C50.7275 83.6486 49.5798 80.5585 46.9526 79.7979C46.1341 79.5575 45.2631 79.514 44.3318 79.3657C44.7084 80.1827 45.1824 80.6442 46.0098 80.827C47.2139 81.0929 48.2041 81.7769 48.6344 82.9851C49.216 84.624 48.2105 86.2196 46.3992 86.575C45.5923 86.7348 44.7661 86.7795 43.8579 86.8882C44.2793 86.9982 44.6264 87.0979 44.9723 87.1784C46.6657 87.5747 48.2604 87.0301 49.2006 85.7376Z" fill="#A6A6A6"/>
<path d="M44.7661 85.1508C43.1829 84.2686 41.6355 84.0053 39.969 84.509C40.0433 84.8043 40.1138 85.0741 40.1919 85.3707C41.7277 85.2991 43.1957 85.2288 44.7674 85.1521L44.7661 85.1508Z" fill="#A6A6A6"/>
<path d="M40.042 47.4668C40.1048 47.5166 40.1753 47.555 40.247 47.5908C40.1586 47.5409 40.0894 47.4962 40.042 47.4668Z" fill="#A6A6A6"/>
<path d="M36.9909 79.3095C37.4866 79.904 37.958 80.469 38.4409 81.0469C39.0609 80.9165 39.7064 80.7861 40.4302 80.6352C39.4016 79.7595 38.2769 79.3568 36.9909 79.3095Z" fill="#A6A6A6"/>
<path d="M48.8368 25.2765C47.9889 24.5133 46.8745 24.3765 45.7857 24.4123C44.2768 24.4685 42.7589 24.5746 41.264 24.7817C40.1023 24.9441 38.9661 25.2995 37.8222 25.5718C37.47 25.6549 37.2765 25.8582 37.1664 26.2264C36.9858 26.8452 36.7629 27.455 36.5016 28.0431C35.5793 30.127 33.9282 31.5614 32.1401 32.8757C32.0069 32.9703 31.8672 33.1186 31.8224 33.2695C31.6853 33.7246 31.5765 34.1874 31.4548 34.6758L33.1187 34.5837L34.8351 33.6428C34.9209 33.5801 35.0106 33.5277 35.1054 33.483C35.8739 33.0918 37.1331 32.6251 38.7522 32.6072C39.2799 32.5983 39.8102 32.6392 40.3328 32.7312C41.2487 32.8846 42.0915 33.3462 42.7102 34.0301C42.755 34.08 42.7986 34.1337 42.8409 34.1836L43.6773 34.6515C44.2409 34.2283 45.1747 33.8435 46.0431 34.3702C46.1354 34.19 46.2391 34.0174 46.3634 33.8435C47.4342 32.1751 50.0614 31.9373 51.8995 32.2544C51.2501 29.7716 50.6211 27.4985 50.3662 27.0996C49.9397 26.4361 49.4235 25.8032 48.8368 25.2765ZM40.8529 31.8529C40.7389 32.0703 40.4699 32.1521 40.2521 32.0383C39.0455 31.4029 37.502 31.431 36.3184 32.1086C36.2505 32.1482 36.1762 32.1661 36.1032 32.1674C35.947 32.17 35.7945 32.0894 35.7113 31.945C35.5896 31.7327 35.6626 31.4617 35.8752 31.339C37.3163 30.5131 39.1966 30.4798 40.6671 31.2533C40.8849 31.3684 40.9682 31.6369 40.8529 31.8529ZM51.2718 30.6C51.2142 30.8378 50.9747 30.9861 50.7364 30.9286C49.4107 30.6128 47.921 31.0206 46.9436 31.9718C46.8591 32.0549 46.7489 32.0958 46.6388 32.0971C46.5209 32.0984 46.4031 32.0536 46.3147 31.9629C46.1431 31.7877 46.1469 31.5065 46.3237 31.3351C47.5149 30.1781 49.3287 29.6795 50.9439 30.0656C51.1822 30.1232 51.3295 30.3622 51.2731 30.6H51.2718Z" fill="#A6A6A6"/>
<path d="M54.7162 102.295C54.1642 102.349 53.7056 102.392 53.2214 102.437C53.1625 103.058 53.1023 103.662 53.0498 104.271L54.592 104.251C54.633 103.579 54.6727 102.957 54.7162 102.295Z" fill="#A6A6A6"/>
<path d="M54.7316 108.496C54.6035 109.342 54.4998 110.197 54.387 111.064L56.635 111.037C56.7683 110.085 56.8989 109.155 57.0296 108.219C56.3033 108.228 55.6423 108.228 54.9801 108.258C54.8917 108.26 54.7457 108.4 54.7316 108.494V108.496Z" fill="#A6A6A6"/>
<path d="M44.5932 104.482L46.0752 104.465C46.1341 103.828 46.1904 103.227 46.2532 102.574C45.7575 102.547 45.2861 102.515 44.7674 102.485C44.7084 103.178 44.6521 103.814 44.5919 104.482H44.5932Z" fill="#A6A6A6"/>
<path d="M50.1139 104.408L51.7266 104.388C51.765 103.728 51.8073 103.098 51.8419 102.473L50.3265 102.491C50.2522 103.154 50.1869 103.769 50.1126 104.408H50.1139Z" fill="#A6A6A6"/>
<path d="M47.3958 104.452L48.8368 104.434C48.8958 103.797 48.947 103.187 49.0033 102.563L47.5354 102.581C47.4855 103.238 47.4432 103.833 47.3958 104.452Z" fill="#A6A6A6"/>
<path d="M69.0881 85.799C65.8448 86.0176 62.6003 86.2247 59.3532 86.4177C57.4587 86.5302 55.5578 86.6006 53.6569 86.7079C53.4968 86.7169 53.3213 86.8499 53.1919 86.9713C52.6873 87.4456 52.2671 88.0363 51.6946 88.3981C50.4431 89.1907 49.0405 89.1409 47.6417 88.8187C47.3689 88.7599 47.0897 88.7011 46.8117 88.6857C46.038 88.6474 45.2426 88.7279 44.4907 88.5886C43.3699 88.384 42.2427 88.1117 41.4869 87.1119C41.4037 87.0058 41.1962 86.9496 41.0476 86.9521C38.6305 87.0199 36.2147 87.1234 33.795 87.1746C31.3459 87.2283 28.8942 87.2372 26.4413 87.2513C25.8303 87.2538 25.2231 87.1976 24.6006 87.1631C24.7453 88.4646 24.8734 89.72 25.031 90.9691C25.2679 92.8126 25.4934 94.6625 25.7867 96.4946C26.1723 98.9006 26.4989 101.325 27.0702 103.683C27.8323 106.817 28.7687 109.913 29.7089 113C30.4147 115.314 31.3395 117.551 32.4513 119.709C32.6268 120.046 32.819 120.268 33.2199 120.307C34.7736 120.461 36.3248 120.766 37.8786 120.769C41.3447 120.78 44.8173 120.719 48.2796 120.553C50.584 120.443 52.882 120.103 55.1825 119.878C56.229 119.777 57.1218 119.378 57.8814 118.64C58.3938 118.143 58.9548 117.697 59.5005 117.229C62.4389 114.746 65.0981 111.991 67.4114 108.921C70.4779 104.849 72.7925 100.386 74.1452 95.468C75.07 92.1005 75.8744 88.6998 76.7634 85.2109C76.3894 85.2582 76.1793 85.3004 75.9692 85.3144C73.6777 85.4806 71.3823 85.6545 69.0907 85.8028L69.0881 85.799ZM66.6531 102.241C65.4875 104.568 63.5994 106.027 61.117 106.689C60.3369 106.894 60.0615 107.248 59.9488 108.024C59.6875 109.826 59.2994 111.607 58.9407 113.395C58.9164 113.528 58.7153 113.723 58.591 113.726C56.0407 113.815 53.4878 113.874 50.935 113.942C50.8876 113.942 50.8402 113.921 50.7774 113.906C51.0438 112 51.3116 110.1 51.5844 108.159L46.8757 108.216C46.6029 110.189 46.3301 112.17 46.0547 114.176L37.9657 114.273C38.2616 111.95 38.5562 109.653 38.8546 107.316C35.9636 106.804 33.7194 105.49 32.6255 102.494C34.7749 103.566 36.9666 104.057 39.294 104.225C39.3683 103.53 39.4426 102.843 39.522 102.101C36.9807 101.597 34.8902 100.44 33.7668 97.8651C34.3573 98.0339 34.8723 98.218 35.4064 98.333C37.8824 98.8687 39.7538 97.5762 40.0818 95.078C40.1829 94.288 40.1701 93.4864 40.2098 92.6311C40.4532 92.8292 40.6787 93.0363 40.9246 93.214C42.2375 94.1524 43.7388 94.6229 45.3015 94.8978C47.6673 95.3094 50.046 95.2289 52.4272 95.0307C54.6804 94.8441 56.8566 94.3672 58.8702 93.3048C59.5222 92.9609 60.1191 92.5083 60.7852 92.0826C60.7942 92.819 60.7673 93.5503 60.8236 94.2662C60.8646 94.775 60.9684 95.2903 61.1375 95.7671C61.6422 97.208 62.9577 97.9277 64.5742 97.6171C65.23 97.4931 65.8577 97.2348 66.516 97.0315C65.5016 99.3251 63.6276 100.554 61.2323 101.103C61.2143 101.106 61.1964 101.103 61.1823 101.106C60.4488 101.248 60.0594 101.701 60.0141 102.464C59.9898 102.872 59.9603 103.281 59.9283 103.742C62.3659 103.479 64.6433 102.898 66.8785 101.671C66.7748 101.932 66.7248 102.092 66.6531 102.239V102.241Z" fill="#A6A6A6"/>
<path d="M56.0036 104.183C56.5646 104.133 57.0885 104.089 57.6585 104.039C57.7149 103.379 57.7687 102.74 57.834 102.018C57.2525 102.074 56.7286 102.121 56.2034 102.175C56.1381 102.861 56.0753 103.487 56.0048 104.185L56.0036 104.183Z" fill="#A6A6A6"/>
<path d="M75.9731 46.9132C75.9526 46.9541 75.9462 47.0193 75.9667 47.0577C76.1268 47.3837 76.3048 47.7033 76.4649 48.0319C76.5392 48.1917 76.5866 48.363 76.6878 48.6468C77.1182 47.0347 77.1272 45.8419 76.7288 45.241C76.4739 45.8086 76.2216 46.3596 75.9731 46.9132Z" fill="#A6A6A6"/>
<path d="M70.8379 68.3032C70.7789 68.5423 70.8673 68.8235 70.9032 69.0818C70.9391 69.3426 71.0223 69.6021 71.0313 69.8629C71.0812 71.1273 70.6841 72.2869 70.127 73.3928C69.6287 74.3784 69.074 75.3398 68.4874 76.4176C70.4805 76.6426 72.4544 76.8906 73.994 78.3493C75.5299 79.803 76.2113 81.6491 76.5264 83.6524C77.14 83.6767 77.1195 83.6703 77.3295 83.1551C77.6523 82.3765 77.979 81.5954 78.3402 80.8321C79.853 77.6449 81.3824 74.4628 82.8913 71.2731C82.9835 71.0749 83.0335 70.7693 82.9477 70.5865C82.3905 69.3822 81.7974 68.1958 81.1928 67.0145C81.098 66.8278 80.8931 66.6476 80.6971 66.5734C79.5494 66.1413 78.3991 65.7207 77.2335 65.3269C75.5081 64.7503 73.7699 64.1993 72.0086 63.6317C71.6051 65.2208 71.2055 66.7562 70.8379 68.3019V68.3032Z" fill="#A6A6A6"/>
<path d="M87.7818 18.8791C87.5 18.7499 87.2298 18.6438 86.9697 18.5403C86.8365 18.4879 86.7033 18.4342 86.5611 18.3754C86.1512 18.2066 85.6658 18.0263 85.0996 18.0263C83.3947 18.0263 82.7645 19.4953 82.5544 19.9837C81.7859 21.7876 81.0237 23.5953 80.2616 25.4005C79.6762 26.7876 79.0908 28.1735 78.5029 29.5606C76.739 33.7297 74.9752 37.8962 73.205 42.0704C73.0628 42.4092 72.9193 42.7493 72.7759 43.088C72.6875 43.1059 72.5953 43.1302 72.5031 43.1596C72.8848 41.8761 73.2793 40.5503 73.6879 39.1747C74.9867 34.8062 76.2779 30.43 77.5691 26.0564L77.8432 25.1282C78.3722 23.3384 78.9294 21.4207 79.6531 18.9136C80.1335 17.2503 79.4687 15.9002 77.8765 15.3032C77.1348 15.0245 76.5469 14.8442 75.9628 14.7189C75.6451 14.6512 75.3787 14.6192 75.1225 14.6192C74.3591 14.6192 73.0013 14.912 72.4826 16.8796C72.097 18.3587 71.7166 19.8392 71.3374 21.3197C71.0223 22.5483 70.7072 23.7769 70.3895 25.0042C70.1538 25.9081 69.913 26.8107 69.6722 27.7133C69.3955 28.7463 69.1201 29.7805 68.8524 30.8161C68.2863 33.001 67.724 35.1872 67.1616 37.3746C66.5032 39.9315 65.8448 42.4885 65.1813 45.0454C64.8829 46.1986 64.5652 47.3722 64.2565 48.5075C64.081 49.1544 63.9055 49.8025 63.7326 50.4469L60.629 61.9773L59.9667 61.3662C58.8574 60.3409 57.7482 59.3169 56.6325 58.3018L56.4775 58.1611C55.7115 57.4618 54.9212 56.7395 54.0578 56.0683C53.5583 55.6796 53.0126 55.3447 52.4144 55.0621C54.2436 53.7977 55.5604 52.4528 56.5121 50.8803C56.9156 50.8138 57.246 50.6783 57.4856 50.5786L57.5291 50.5607C58.4411 50.1899 59.6055 49.6172 60.5175 48.4729L62.2724 46.2701L59.6439 45.2512C59.421 45.1643 59.2507 45.0978 59.0726 45.0249C58.9778 44.9866 58.8382 44.9303 58.6166 44.3051L58.6448 44.2809C58.7742 44.1632 58.8946 44.0303 59.0035 43.882C60.5611 41.8658 61.327 39.7052 61.2784 37.4551C61.2284 35.2063 60.2331 33.4254 59.3672 32.1176L59.0919 31.7072C58.5078 30.8378 57.957 30.017 57.492 29.1643C56.5748 27.4921 55.6449 25.871 54.364 24.4059C54.1296 23.7807 53.9016 23.153 53.6736 22.5265C53.607 22.345 53.5416 22.1634 53.475 21.9819C54.2333 21.4194 54.8994 20.761 55.4643 20.0131C57.4651 17.3615 58.1299 14.205 57.4395 10.6317C56.4058 5.28644 51.2667 1.09948 45.7408 1.09948C44.9313 1.09948 44.1231 1.18897 43.343 1.36412C43.343 1.36412 43.0189 1.43955 42.9497 1.45489C40.6928 0.489652 38.4038 0 36.1404 0C35.286 0 34.4188 0.0703161 33.5644 0.20839C30.4698 0.709548 27.8631 1.94838 25.8059 3.89548C25.5408 3.94406 25.2551 3.98241 24.9541 4.02332C24.3623 4.10387 23.6911 4.19464 23.0071 4.39152C18.5931 5.67254 15.5573 8.44041 13.9805 12.6299C13.8524 12.9764 13.741 13.1055 13.5322 13.2692C10.1557 15.9603 8.62243 19.5464 9.09765 23.6388C9.42684 26.4668 10.6873 28.7373 12.8405 30.3865C14.4301 31.6062 16.1888 32.225 18.0692 32.225C18.4714 32.225 18.8787 32.1955 19.2912 32.138C19.3809 32.3835 19.4705 32.6264 19.5589 32.8667C19.6767 33.1851 19.7933 33.5034 19.9099 33.8256C19.7613 34.0391 19.6089 34.2539 19.4513 34.4763C18.8826 35.2779 18.2946 36.1076 17.7861 37.0345C16.5616 39.2757 16.1145 41.3647 16.4258 43.4141C16.363 43.6979 16.2913 43.9804 16.2208 44.263C16.0389 44.984 15.8506 45.7306 15.761 46.5552C15.5535 48.4934 15.9032 50.0071 16.5052 51.1782C16.1658 51.2191 15.8378 51.26 15.5279 51.2996C13.6808 51.5413 11.2457 51.8634 8.77998 52.2124C8.28683 52.284 6.78559 52.5014 5.76983 53.9933C5.64942 54.171 5.51749 54.3488 5.37787 54.5277C5.33816 54.5073 5.29845 54.4868 5.25746 54.4664C4.72204 54.2005 4.15715 54.0662 3.57818 54.0662C2.60724 54.0662 1.66833 54.4664 1.00225 55.1631C0.310557 55.8867 -0.0442562 56.8584 0.00441865 57.8978C0.0338797 58.5102 0.154286 59.0637 0.282377 59.5853C0.831891 61.7383 1.38653 63.8912 1.94116 66.0429C2.39461 67.802 2.84677 69.5612 3.29766 71.3191C3.44112 71.8803 3.59099 72.4416 3.74085 73.0028C4.12385 74.4347 4.48635 75.786 4.74125 77.1617C5.05636 78.8531 5.32791 80.5982 5.59178 82.287C5.87358 84.0986 6.16563 85.9715 6.5166 87.8189C7.30565 91.9854 8.51739 96.0561 10.1198 99.9209C12.3038 105.17 15.501 110.021 19.6229 114.341C22.0977 116.932 24.9426 119.339 28.3357 121.71C28.3434 121.716 28.3562 121.728 28.3665 121.738C29.1901 123.781 30.6965 125.185 32.8433 125.908C35.6344 126.853 38.4319 126.991 41.0399 127H41.2615C43.6043 127 45.9471 126.864 48.2169 126.733C50.4482 126.599 52.8423 126.377 55.235 125.677C57.0846 125.126 59.3263 124.162 60.3971 121.582C63.9478 118.725 66.8914 115.835 69.393 112.752C73.3869 107.836 76.0845 102.804 77.6421 97.3691C78.2147 95.3785 78.6758 93.3534 79.1216 91.3935C79.3944 90.1943 79.6775 88.9542 79.9785 87.7512C80.0451 87.4853 80.1104 87.2168 80.177 86.9483C80.5113 85.5816 80.8265 84.2891 81.3363 83.1436C82.6428 80.1865 84.1005 77.2128 85.5108 74.3363C85.8054 73.7354 86.1 73.1358 86.392 72.5375C86.9428 71.4137 86.9467 70.2886 86.401 69.1943L85.8809 68.1536C85.3763 67.1462 84.8537 66.1042 84.3592 65.0763C83.8661 64.0523 83.013 63.3274 81.8973 62.9797C79.9119 62.3545 77.9277 61.7268 75.9449 61.1003L74.8971 60.7692C74.9355 60.626 74.9739 60.4815 75.0085 60.3332C75.0815 60.0213 75.2532 59.7158 75.599 59.2824C76.187 58.5472 76.7531 57.8185 77.2104 56.9683C78.8257 53.9307 79.8004 50.585 80.1066 47.0296C80.177 46.2267 80.2039 45.0722 79.7108 43.9395C82.2752 38.2836 84.8844 32.5126 87.4706 26.7761L87.5205 26.6649C88.1098 25.3507 88.7195 23.9929 89.2856 22.6301C89.9453 21.0499 89.3714 19.6129 87.778 18.8778L87.7818 18.8791ZM87.3732 21.8349C86.8007 23.2105 86.1897 24.5695 85.5799 25.9311C82.9502 31.7634 80.3141 37.5945 77.6716 43.4217C77.4961 43.8066 77.4576 44.1083 77.6831 44.5135C78.0866 45.2269 78.1135 46.0439 78.0417 46.8493C77.7625 50.0749 76.9004 53.138 75.3787 55.9993C74.9957 56.7088 74.4859 57.357 73.9787 57.9911C73.5252 58.5587 73.1576 59.143 72.9885 59.8615C72.8105 60.5979 72.562 61.3177 72.3327 62.0835C72.4723 62.1461 72.5966 62.2139 72.7298 62.2586C75.576 63.1586 78.4222 64.0612 81.2722 64.9574C81.8243 65.1288 82.2303 65.4394 82.4878 65.9751C83.1577 67.3661 83.8545 68.7391 84.5424 70.1186C84.7947 70.6249 84.7947 71.0838 84.527 71.6272C82.7952 75.1724 81.0288 78.7035 79.4354 82.3075C78.745 83.8646 78.3825 85.5803 77.9649 87.2475C77.1669 90.4257 76.5508 93.6513 75.6464 96.7976C74.0901 102.231 71.3413 107.064 67.7803 111.446C65.1826 114.649 62.2173 117.463 59.0124 120.035C58.8229 120.188 58.6333 120.39 58.55 120.609C57.8711 122.432 56.3622 123.181 54.6419 123.693C52.5015 124.32 50.3009 124.534 48.0926 124.667C45.7473 124.802 43.3955 124.939 41.0476 124.93C38.5037 124.921 35.9598 124.777 33.5107 123.947C31.9659 123.427 30.8809 122.455 30.2763 120.922C30.1367 120.567 29.8319 120.22 29.5116 120.002C26.4963 117.895 23.6681 115.572 21.1267 112.911C17.2661 108.866 14.188 104.293 12.0386 99.1269C10.4734 95.3504 9.31669 91.4408 8.5571 87.4341C7.88718 83.8979 7.4427 80.3195 6.78431 76.7832C6.41028 74.7684 5.81722 72.7944 5.31126 70.809C4.30958 66.8969 3.29509 62.9873 2.29598 59.0752C2.19223 58.6546 2.1 58.2289 2.0795 57.7993C2.02058 56.5439 3.20671 55.7627 4.33648 56.3227C4.83732 56.5707 5.29461 56.9146 5.82747 57.2522C6.3821 56.5592 6.98926 55.8944 7.49138 55.1542C7.89487 54.5623 8.44951 54.3552 9.081 54.2631C11.3162 53.946 13.5578 53.6482 15.7994 53.3541C17.006 53.2007 18.2101 53.0588 19.4231 52.9552C19.6716 52.9348 19.9829 53.0524 20.1917 53.2071C21.2113 53.9563 22.2104 54.7336 23.207 55.5122C23.4772 55.7218 23.7142 55.796 24.0664 55.6694C24.7812 55.4086 25.51 55.1695 26.2543 55.0008C27.0049 54.8384 27.3097 54.2874 27.6863 53.6482C26.0134 53.6597 24.6826 52.968 23.4375 51.944C23.5208 52.3313 23.5912 52.6535 23.6745 53.0243C22.2719 53.2084 21.0717 52.8402 19.9919 52.0808C18.1537 50.7818 17.5991 48.9076 17.8271 46.7777C17.9373 45.7805 18.2485 44.8101 18.465 43.8244C18.497 43.6646 18.5508 43.4933 18.5214 43.3386C18.1563 41.4184 18.7199 39.6631 19.6127 38.0292C20.3031 36.7686 21.2164 35.6346 22.0144 34.4277C22.1156 34.2769 22.1861 34.025 22.1297 33.8691C21.7057 32.6494 21.2318 31.4425 20.8129 30.2203C20.6733 29.8202 20.5132 29.723 20.0956 29.8508C17.9193 30.499 15.8942 30.1206 14.1086 28.7501C12.3653 27.4154 11.4161 25.5923 11.1612 23.4061C10.7488 19.8609 12.104 17.0675 14.8285 14.8954C15.3805 14.4607 15.6918 13.9953 15.9288 13.3536C17.2891 9.73678 19.9073 7.45472 23.5874 6.3872C24.4597 6.13535 25.3871 6.09444 26.2824 5.91929C26.5553 5.86559 26.8691 5.76203 27.0561 5.57538C28.9621 3.68709 31.3024 2.67838 33.8962 2.25777C36.85 1.7809 39.6834 2.26416 42.4182 3.48893C42.7883 3.65513 43.3468 3.49148 43.7964 3.39176C48.9521 2.2322 54.4114 5.91034 55.4015 11.0293C55.9446 13.8381 55.5616 16.4449 53.8068 18.7717C53.1253 19.6743 52.2684 20.3941 51.2808 20.9348C51.0105 21.0793 50.9785 21.2123 51.0759 21.4769C51.5383 22.717 51.9802 23.9661 52.4452 25.2062C52.5195 25.4043 52.6437 25.5936 52.7833 25.7572C53.9541 27.0919 54.82 28.6158 55.6718 30.1666C56.2585 31.2405 56.9591 32.2531 57.6406 33.2746C58.4949 34.5645 59.1674 35.9261 59.2033 37.5101C59.2443 39.4508 58.518 41.132 57.3447 42.6444C57.3152 42.6853 57.2819 42.725 57.2473 42.7569C56.6094 43.3079 56.3071 43.9382 56.5953 44.814C56.904 45.7498 57.3216 46.5604 58.2938 46.9529C58.4744 47.027 58.6551 47.0973 58.8933 47.1894C58.3066 47.9258 57.5471 48.3234 56.7465 48.6481C56.5006 48.7491 56.2341 48.8667 55.9843 48.8552C55.4118 48.822 55.13 49.1186 54.8751 49.5737C53.876 51.3431 52.385 52.6331 50.7006 53.7198C49.7937 54.3053 48.8804 54.8793 47.9491 55.4776C48.0503 55.9635 48.4449 56.0836 48.8893 56.1552C50.3009 56.3892 51.6433 56.8239 52.7821 57.7086C53.6364 58.3721 54.4332 59.1085 55.2312 59.8359C56.8477 61.3074 58.445 62.793 60.0525 64.2722C60.1332 64.3463 60.2447 64.4115 60.3484 64.4294C60.8967 64.5061 61.4449 64.5688 62.0687 64.6481C62.2134 64.0919 62.3889 63.4374 62.5606 62.7892C63.6186 58.8566 64.6779 54.9228 65.736 50.9902C66.2189 49.1825 66.721 47.3799 67.1885 45.5683C68.4195 40.8277 69.6312 36.0808 70.8596 31.339C71.3605 29.3983 71.8921 27.4678 72.3955 25.5296C73.0987 22.8218 73.7827 20.1115 74.4885 17.4063C74.6665 16.7313 74.8471 16.6047 75.526 16.7491C76.0743 16.868 76.6148 17.0483 77.1425 17.2465C77.7177 17.4625 77.833 17.7285 77.6549 18.3447C77.0593 20.4132 76.4598 22.4792 75.8488 24.5478C74.4667 29.2295 73.0859 33.9138 71.6948 38.5904C69.922 44.5596 68.1454 50.5223 66.3572 56.4863C65.9307 57.9131 65.4619 59.3245 65.0135 60.7449C64.9982 60.7858 65.011 60.837 65.011 60.8843L65.1467 60.952C65.9678 59.5163 66.8132 58.0934 67.5984 56.6398C67.9545 55.9852 67.9635 55.2577 67.8982 54.5035C67.7649 52.9207 68.2863 51.4824 69.1855 50.2001C70.2973 48.6225 71.4681 47.0871 72.6247 45.5478C73.0193 45.0262 73.3754 44.9827 74.0773 45.3343C74.4244 44.5123 74.7716 43.6953 75.1148 42.8745C76.8825 38.708 78.6463 34.5402 80.4102 30.3712C81.7628 27.184 83.1026 23.9878 84.4604 20.798C84.7986 20.0105 84.9677 19.9658 85.7657 20.2943C86.1487 20.4541 86.5393 20.596 86.9159 20.7674C87.4731 21.0243 87.6063 21.2711 87.3694 21.8387L87.3732 21.8349Z" fill="#A6A6A6"/>
<path d="M74.4219 50.6745C73.9825 51.2037 73.7993 51.6486 73.8852 52.2342C73.9684 52.8197 73.971 53.427 73.9326 54.0215C73.9095 54.4088 73.7571 54.7886 73.6597 55.1734C73.6059 55.1644 73.5534 55.1555 73.497 55.1465C73.3344 54.5009 73.1743 53.8565 72.9757 53.078C70.5292 58.3925 68.1492 63.569 65.759 68.766C67.1937 69.1099 68.0455 69.1329 68.905 68.8158C69.0804 68.7506 69.2751 68.5499 69.3264 68.3722C69.9169 66.3037 70.4446 64.2198 71.0518 62.1576C71.5436 60.4803 71.9407 58.7518 73.1486 57.3749C73.4753 57.0054 73.7481 56.5784 74.0235 56.168C74.9522 54.786 75.4287 53.3094 74.9009 51.6525C74.7972 51.3354 74.6076 51.049 74.4232 50.6757L74.4219 50.6745Z" fill="#A6A6A6"/>
<path d="M75.2647 48.2121C75.1494 48.6238 74.8587 49.0879 74.956 49.4433C75.143 50.1503 75.5465 50.7985 75.8693 51.485C76.1511 50.3638 76.1063 49.2771 75.4773 48.2505C75.4056 48.239 75.3377 48.2262 75.2634 48.2121H75.2647Z" fill="#A6A6A6"/>
<path d="M19.4347 95.5945C21.2113 96.5738 22.9687 97.5442 24.8376 98.5721C24.452 95.0742 24.0908 91.7502 23.7142 88.3303C22.2642 90.7926 20.8731 93.1604 19.4359 95.5958L19.4347 95.5945Z" fill="#A6A6A6"/>
<path d="M28.7098 44.7462C28.8789 46.5425 29.1338 48.2824 30.3263 49.6734C31.05 50.5134 31.9095 51.2395 32.7165 52.0117C32.9739 52.2572 33.2532 52.4796 33.5235 52.7098C33.503 52.7571 33.485 52.8018 33.4671 52.8453C32.8766 52.7571 32.2874 52.6701 31.6559 52.573C31.6917 52.6995 31.7033 52.7801 31.7276 52.8542C32.5256 55.0353 33.8475 56.8341 35.6831 58.2519C37.6724 59.7937 39.6565 61.342 41.3845 63.1791C41.5766 63.3837 41.7495 63.6023 41.9301 63.8119C41.9954 63.7966 42.0633 63.78 42.1312 63.7582C42.9638 61.3138 43.8003 58.8668 44.6431 56.3866C40.7709 56.0376 38.1143 54.4421 37.6365 52.2585C40.0228 53.9691 42.1517 54.9253 44.8122 54.8154C46.5376 54.7438 47.9171 54.0726 49.02 52.7647C49.3607 52.3595 49.7322 51.9708 50.1318 51.6218C51.2321 50.6629 52.1749 49.5826 52.8538 48.2773C53.776 46.5169 54.2654 44.6375 54.4613 42.6751C54.5741 41.5117 54.2897 40.4237 53.7286 39.3166C53.7133 39.3166 53.6275 39.0034 53.4917 38.4728C52.709 39.5467 51.6062 40.1361 50.3073 40.1501L50.2266 40.1527C49.3377 40.1437 48.441 39.8625 47.6802 39.3831L48.8099 41.1115C49.1148 41.5846 49.207 42.156 49.0648 42.6802C48.9905 42.9461 48.8753 43.1891 48.7241 43.4115C48.3386 43.9676 47.8377 44.1965 47.6238 44.2898C47.2062 44.4765 46.7963 44.5442 46.4287 44.5468C45.9573 44.5532 45.5538 44.4547 45.2925 44.3691L45.0197 44.277L44.9185 44.0047C44.8711 43.8654 44.7648 43.694 44.6995 43.6442C44.67 43.6595 44.6188 43.68 44.5842 43.694C44.4625 43.7477 44.4151 43.804 44.3382 43.8871C44.2319 43.9996 44.0564 44.1888 43.7516 44.2451C43.0906 44.3627 42.4386 43.7273 42.2094 43.0676C41.8891 42.1203 42.4758 41.3187 42.6013 41.1652C42.8063 40.9108 43.1765 40.8725 43.4314 41.077C43.6888 41.2816 43.7311 41.6511 43.5261 41.9055C43.5236 41.9119 43.2034 42.3107 43.334 42.6866C43.3788 42.817 43.4647 42.9321 43.539 43.0062C43.6542 42.8937 43.8233 42.7403 44.1 42.6189C44.2601 42.5447 44.506 42.4322 44.8237 42.4654C45.3924 42.5217 45.7344 42.9871 45.9125 43.3118C46.2302 43.3834 46.6862 43.4153 47.1371 43.2108C47.2946 43.143 47.5521 43.0267 47.7481 42.7403C47.8275 42.6304 47.8838 42.5038 47.9235 42.367C47.9773 42.1688 47.9389 41.9464 47.8172 41.761L46.6247 39.929C46.5683 39.8318 45.2221 37.4756 45.3258 35.7267C45.3412 35.4863 45.4975 35.292 45.705 35.214C44.9761 34.6489 44.1448 35.4122 44.0475 35.5068L43.8079 35.7382L43.612 35.6282C43.8259 36.3442 43.84 37.1074 43.6389 37.8272C43.4762 38.3923 43.2034 38.9254 42.8293 39.4048C42.8178 39.4227 41.3204 41.4056 38.8764 41.435C38.4704 41.4414 38.0579 41.3903 37.6634 41.2841C36.5746 41.0029 35.6024 40.2984 34.9299 39.3012L34.7583 39.0494C34.228 38.2619 33.9398 37.3541 33.9129 36.4132L33.5158 36.0105L31.4458 36.0373C31.4048 36.1639 31.3664 36.2943 31.3421 36.4285C31.3395 36.4375 31.3395 36.4464 31.3357 36.4554C31.3088 36.4618 31.2793 36.4707 31.2524 36.4758C31.0129 36.5525 30.7477 36.7277 30.6183 36.931C29.9958 37.9192 29.2221 38.7387 28.1334 39.3601C28.0296 39.1325 27.9579 38.9663 27.881 38.8065C27.4417 37.9307 26.8319 37.2263 25.8802 36.8888C25.0118 36.5807 24.1279 36.4477 23.4247 37.2084C23.107 37.5523 22.8201 37.9934 22.7036 38.4396C22.1604 40.5554 22.3987 42.5971 23.7449 44.3499C24.9605 45.9365 26.5822 46.3443 28.3524 44.9648C28.4626 44.8792 28.5894 44.8204 28.7136 44.7424L28.7098 44.7462ZM48.5525 49.1953C47.7609 50.1874 46.8476 50.7256 45.8356 50.7946C45.7742 50.7985 45.7139 50.801 45.6537 50.8023C44.109 50.8215 42.9446 49.7309 42.8934 49.6836C42.7153 49.5149 42.7089 49.2336 42.878 49.0559C43.0471 48.8795 43.3289 48.8718 43.5056 49.0406C43.5159 49.0495 44.5406 49.9943 45.7806 49.9099C46.5299 49.8562 47.228 49.4305 47.8556 48.643C48.0081 48.4499 48.2886 48.4192 48.4807 48.5727C48.6729 48.7248 48.7049 49.0048 48.5512 49.1966L48.5525 49.1953ZM42.7986 46.3775L44.3715 45.9122C44.5714 45.8521 44.7866 45.8393 44.9928 45.8738L45.7985 46.0068C45.9151 46.0247 46.0367 46.0029 46.1392 45.9416L46.6106 45.6565C46.8796 45.4941 47.1985 45.4276 47.5072 45.4673L48.2079 45.5568C48.4513 45.5874 48.6242 45.8099 48.5935 46.0528C48.5627 46.2957 48.3398 46.4696 48.0965 46.4363L47.3945 46.3469C47.2818 46.3328 47.1678 46.3571 47.0717 46.4146L46.6003 46.6997C46.3173 46.871 45.9817 46.9362 45.6537 46.8825L44.8481 46.7496C44.7738 46.7368 44.6969 46.7419 44.6252 46.7636L43.0509 47.229C43.0099 47.2405 42.9702 47.2469 42.9292 47.2469C42.7358 47.2495 42.5552 47.1242 42.4976 46.9298C42.4284 46.6946 42.5616 46.4479 42.7973 46.3775H42.7986ZM40.1753 46.2177C40.3802 46.0784 40.6556 46.1321 40.7952 46.3328C40.9079 46.5015 40.89 46.7202 40.7658 46.871C41.3255 47.197 42.6961 47.8631 44.5406 47.8388C45.9817 47.8209 47.7135 47.3862 49.5721 46.04C49.7681 45.9007 50.046 45.9429 50.192 46.141C50.3342 46.3392 50.2894 46.6204 50.0947 46.7624C48.0875 48.2121 46.193 48.6864 44.5944 48.7069C42.641 48.7312 41.1308 48.0741 40.4199 47.6892C40.4174 47.6867 40.4135 47.6828 40.4084 47.6828C40.4238 47.6944 40.4379 47.7097 40.4443 47.7302C40.4558 47.7659 40.4468 47.8017 40.4353 47.8337C40.3584 48.0498 40.1983 48.239 40.1599 48.4678C40.1535 48.5036 40.1484 48.5445 40.1189 48.5624C40.101 48.5739 40.0805 48.5778 40.0561 48.5739C39.896 48.5739 39.7423 48.5062 39.6501 48.3668C39.5848 48.2633 39.5579 48.1444 39.5399 48.0229C39.4426 47.3888 39.6232 46.5962 40.1778 46.2177H40.1753ZM26.6347 42.9717C25.6061 42.7147 25.113 41.931 25.2475 40.8201C25.2577 40.7382 25.2897 40.6577 25.2961 40.5759C25.3333 40.1322 25.3243 39.6988 24.8773 39.4355C24.5365 39.2335 24.1689 39.3115 23.6245 39.6362C23.7552 39.2399 23.7962 38.7758 24.0357 38.4638C24.4456 37.9295 25.3461 37.9729 25.8661 38.4779C26.5796 39.1721 26.6949 40.0133 26.4874 40.9556C26.2722 41.9298 26.4438 42.2852 27.2828 42.9436C27.0664 42.9564 26.8358 43.0229 26.636 42.973L26.6347 42.9717Z" fill="#A6A6A6"/>
<path d="M13.1633 64.8999C14.9963 67.8506 16.8254 70.7949 18.6751 73.7725C19.9445 73.2074 21.2638 72.6065 22.3513 71.6361C23.6297 70.4932 23.8807 68.8964 24.1279 67.3098C24.1869 66.9161 24.2407 66.5223 24.288 66.1285C24.3354 65.7373 24.3764 65.3448 24.4187 64.9536C24.9528 66.5721 25.1693 68.2086 25.0207 69.8757C24.917 71.0442 24.5404 72.1603 23.5618 72.8801C22.9213 73.3506 22.6843 73.798 22.9008 74.5728C23.0199 75.01 22.9328 75.5112 22.9392 76.0136C23.654 75.9126 24.2919 75.809 24.9323 75.7323C27.4698 75.4332 29.9407 75.7477 32.345 76.5991C32.5115 76.6554 32.7716 76.6375 32.9176 76.5454C35.2425 75.0688 37.6826 74.877 40.2086 75.9088C40.89 76.1875 41.4895 76.3562 42.1773 75.9893C42.3874 75.8768 42.6551 75.8627 42.9036 75.8321C43.7247 75.7285 44.5496 75.6428 45.3822 75.5482C45.2669 74.7786 45.1721 73.9885 45.0299 73.2074C44.4868 70.2337 43.3455 67.531 41.3627 65.2106C39.8089 63.3939 37.9439 61.9377 35.9598 60.6477C33.1751 58.84 31.041 56.5554 30.056 53.1253C29.5513 53.7466 29.1274 54.2823 28.6893 54.8065C28.141 55.47 27.8913 56.2089 28.0014 57.0668C28.0898 57.7623 28.1077 58.4667 28.2499 59.1443C28.5407 60.5468 28.8968 61.9416 29.2465 63.4322C29.8126 62.949 30.2456 62.536 30.7259 62.1806C31.5509 61.5708 32.4014 60.9827 33.2609 60.4202C33.4235 60.3141 33.7707 60.254 33.8898 60.3486C35.3014 61.4877 36.704 62.6447 38.0682 63.8375C38.5242 64.2338 38.8713 64.7606 39.2697 65.2259C39.2312 65.2592 39.1954 65.2975 39.1595 65.332C38.9815 65.2553 38.7919 65.1965 38.6228 65.107C37.0985 64.2901 35.5716 63.477 34.0589 62.6473C33.0892 62.1141 33.0982 62.1026 32.2349 62.8454C31.2114 63.7237 30.1892 64.6059 29.1568 65.4739C28.688 65.8677 28.5138 65.8319 28.3447 65.2783C27.817 63.5524 27.2649 61.8303 26.8243 60.0852C26.5604 59.0343 26.4746 57.94 26.3081 56.8571C21.0742 58.1599 16.7012 60.9201 13.1633 64.9012V64.8999Z" fill="#A6A6A6"/>
<path d="M21.821 56.6078C21.0448 55.998 20.3031 55.392 19.523 54.8269C19.336 54.6914 19.0337 54.6402 18.7942 54.6671C17.5402 54.8116 16.2913 54.9982 15.0398 55.167C13.1274 55.415 11.215 55.6554 9.3026 55.9187C9.13352 55.9456 8.95035 56.0811 8.83122 56.214C8.24456 56.8737 7.67839 57.5513 7.10839 58.2238C8.76589 60.0379 10.4234 61.8495 12.0835 63.6636C14.8528 60.681 17.8886 58.0435 21.821 56.6091V56.6078Z" fill="#A6A6A6"/>
<path d="M39.7961 46.9605C39.7846 47.0104 39.7807 47.0615 39.7897 47.1139C39.7833 47.0641 39.7833 47.0104 39.7961 46.9605Z" fill="#A6A6A6"/>
<path d="M41.1039 111.413L43.4647 111.384C43.5748 110.395 43.6811 109.436 43.7939 108.433L41.4869 108.46C41.3563 109.468 41.232 110.427 41.1039 111.413Z" fill="#A6A6A6"/>
<path d="M60.8723 75.6659C60.9697 75.6863 61.2041 75.4178 61.2809 75.2427C61.5986 74.5178 61.8586 73.7661 62.1737 73.0322C63.985 68.8184 65.8 64.6008 67.6202 60.3895C69.2277 56.6807 70.8494 52.9757 72.4646 49.2707C72.8476 48.395 73.2447 47.5192 73.6328 46.646C73.5701 46.5898 73.5111 46.5335 73.4458 46.4773C73.2767 46.6524 73.0846 46.8084 72.9386 47.0014C72.4697 47.6432 72.0342 48.3119 71.5539 48.9485C71.0467 49.6287 70.4779 50.2628 69.9912 50.9583C69.2265 52.0475 68.805 53.2672 68.9498 54.6134C69.042 55.5007 68.8691 56.3214 68.5847 57.1499C67.9289 59.0446 66.8081 60.6682 65.6553 62.2816C64.7958 63.4795 63.9094 64.6698 63.4854 66.1196C63.21 67.0554 62.9397 67.9925 62.6528 68.9258C62.0328 70.9713 61.3988 73.013 60.7942 75.0573C60.7378 75.244 60.4586 75.5572 60.871 75.6671L60.8723 75.6659Z" fill="#A6A6A6"/>
<path d="M8.32782 76.8408C8.32782 77.0415 8.32141 77.1246 8.33038 77.2051C8.50587 78.3826 8.68391 79.5639 8.85812 80.7477C9.22574 83.2216 9.58184 85.6992 9.97636 88.1705C10.0238 88.4633 10.2313 88.7893 10.4631 88.9849C11.8478 90.1598 13.2324 91.3322 14.6671 92.4419C15.8442 93.3508 17.0867 94.1703 18.3023 95.0282C20.0136 92.1632 21.6878 89.3608 23.4145 86.4663C18.3766 83.2561 13.3862 80.0714 8.32782 76.842V76.8408Z" fill="#A6A6A6"/>
<path d="M43.3686 104.242C43.4185 103.686 43.4339 103.126 43.4608 102.523C42.9267 102.487 42.4194 102.455 41.8712 102.416C41.7969 103.114 41.7226 103.751 41.6522 104.417C42.162 104.444 42.6244 104.482 43.0868 104.482C43.1841 104.482 43.3622 104.334 43.3686 104.242Z" fill="#A6A6A6"/>
<path d="M22.5191 84.399L22.596 84.3108C22.4896 84.0922 22.391 83.8634 22.2693 83.6473C20.5081 80.4716 18.7968 77.2665 16.9702 74.124C14.963 70.676 12.8904 67.2702 10.3401 64.1827C8.75437 62.2714 7.10582 60.4125 5.16908 58.8387C4.79505 58.5344 4.37107 58.2877 3.8587 57.9451C3.86126 58.2442 3.84333 58.3708 3.86767 58.4897C4.31855 60.5941 4.72204 62.7074 5.23696 64.7938C6.04907 68.0871 6.93034 71.3638 7.80136 74.6456C7.85772 74.8617 8.02424 75.1097 8.20741 75.2286C12.1898 77.8009 16.1811 80.3514 20.175 82.9058C20.9551 83.4057 21.7352 83.903 22.5178 84.4003L22.5191 84.399Z" fill="#A6A6A6"/>
</svg>
